<?xml version="1.0" encoding="UTF-8"?>
<svg width="130px" height="32px" viewBox="0 0 130 32" version="1.1" xmlns="http://www.w3.org/2000/svg" xmlns:xlink="http://www.w3.org/1999/xlink">
    <!-- Generator: Sketch 49 (51002) - http://www.bohemiancoding.com/sketch -->
    <title>交大要闻</title>
    <desc>Created with Sketch.</desc>
    <defs></defs>
    <g id="Page-1" stroke="none" stroke-width="1" fill="none" fill-rule="evenodd">
        <g id="要闻-列表样式" transform="translate(-267.000000, -337.000000)" fill="#D0021B">
            <g id="Group-17" transform="translate(232.000000, 313.000000)">
                <path d="M44.03125,25.71875 C45.1562556,26.1875023 46.1874953,26.8437458 47.125,27.6875 C47.5937523,28.7187552 47.4531288,29.6562458 46.703125,30.5 C45.4843689,30.6875009 44.5937528,30.4531283 44.03125,29.796875 C44.03125,29.7031245 43.8437519,29.2812537 43.46875,28.53125 C43.2812491,28.2499986 43.1406255,27.8281278 43.046875,27.265625 C42.9531245,27.1718745 42.90625,27.0781255 42.90625,26.984375 C42.90625,26.0468703 43.2812462,25.6249995 44.03125,25.71875 Z M52.46875,29.796875 C53.2187538,29.6093741 53.8749972,29.7031231 54.4375,30.078125 C54.1562486,30.8281287 53.5000052,31.5312467 52.46875,32.1875 C51.9999977,32.3750009 51.1093816,32.6093736 49.796875,32.890625 C48.8593703,33.1718764 48.2031269,33.3593745 47.828125,33.453125 C46.421868,33.8281269 44.5937613,34.812492 42.34375,36.40625 C39.4374855,38.4687603 37.4687552,39.0312547 36.4375,38.09375 C35.6874963,37.3437463 35.2656255,36.7343773 35.171875,36.265625 C35.171875,35.7968727 35.4062477,35.4687509 35.875,35.28125 C36.5312533,35.28125 37.7968656,34.8125047 39.671875,33.875 C42.5781395,32.5624934 45.9062313,31.4843792 49.65625,30.640625 C50.1250023,30.4531241 50.6874967,30.2656259 51.34375,30.078125 C51.8125023,29.9843745 52.1874986,29.8906255 52.46875,29.796875 Z M50.359375,36.265625 C52.1406339,36.4531259 53.4999953,36.8281222 54.4375,37.390625 C55.1875037,37.9531278 55.2812528,38.7499948 54.71875,39.78125 C53.9687463,40.3437528 53.0312556,40.3906273 51.90625,39.921875 C51.8124995,39.7343741 51.6250014,39.4531269 51.34375,39.078125 C50.6874967,38.3281213 50.1718769,37.7187523 49.796875,37.25 C49.6093741,36.9687486 49.5624995,36.6875014 49.65625,36.40625 C49.7500005,36.2187491 49.9843731,36.1718745 50.359375,36.265625 Z M43.046875,37.109375 C43.1406255,36.8281236 43.3281236,36.7812491 43.609375,36.96875 C43.8906264,37.1562509 43.9843755,37.3906236 43.890625,37.671875 C43.7968745,37.9531264 43.6093764,38.4218717 43.328125,39.078125 C43.2343745,39.3593764 43.1406255,39.5937491 43.046875,39.78125 C42.4843722,41.5625089 41.7812542,43.0624939 40.9375,44.28125 C39.8124944,45.5937566 39.0625019,46.1093764 38.6875,45.828125 C38.3124981,45.5468736 38.2187491,44.8906302 38.40625,43.859375 C38.5937509,43.2031217 38.8749981,42.9687491 39.25,43.15625 C41.1250094,41.0937397 42.3906217,39.0781348 43.046875,37.109375 Z M47.6875,40.625 C48.1562523,40.3437486 48.4843741,40.3906231 48.671875,40.765625 C49.7031302,42.6406344 49.5625066,44.7031137 48.25,46.953125 C50.6875122,47.8906297 52.5624934,48.9687439 53.875,50.1875 C54.7187542,50.7500028 55.3281231,51.1718736 55.703125,51.453125 C56.3593783,52.0156278 56.4531273,52.7187458 55.984375,53.5625 C55.2343712,54.2187533 54.5312533,54.2187533 53.875,53.5625 C52.5624934,51.968742 50.3593905,50.4218825 47.265625,48.921875 C46.3281203,50.1406311 45.2968806,51.1249962 44.171875,51.875 C41.3593609,53.7500094 39.0156344,53.5156367 37.140625,51.171875 C36.4843717,50.4218712 36.5781208,49.7656278 37.421875,49.203125 C39.5781358,47.2343652 42.2499841,46.25 45.4375,46.25 C45.5312505,46.0624991 45.8124977,45.5468792 46.28125,44.703125 C46.6562519,43.9531212 46.9374991,43.4375014 47.125,43.15625 C47.4062514,42.6874977 47.4531259,42.2187523 47.265625,41.75 C46.8906231,41.3749981 47.0312467,41.0000019 47.6875,40.625 Z M38.265625,49.203125 C37.9843736,49.4843764 37.9843736,49.7187491 38.265625,49.90625 C39.2031297,50.6562538 40.3281184,50.8437519 41.640625,50.46875 C42.4843792,50.1874986 43.5156189,49.2031334 44.734375,47.515625 C41.9218609,47.1406231 39.7656325,47.7031175 38.265625,49.203125 Z M79.609375,28.109375 C79.5156245,27.8281236 79.5156245,27.6406255 79.609375,27.546875 C79.7031255,27.546875 79.8437491,27.6406241 80.03125,27.828125 C80.7812538,28.2031269 81.3906227,28.390625 81.859375,28.390625 C83.3593825,28.9531278 83.9687514,30.3124892 83.6875,32.46875 C83.4062486,33.3125042 83.265625,34.0156222 83.265625,34.578125 C83.6406269,34.4843745 84.1562467,34.2968764 84.8125,34.015625 C85.5625037,33.7343736 86.0312491,33.5468755 86.21875,33.453125 C87.812508,33.3593745 88.9843712,33.6406217 89.734375,34.296875 C89.4531236,35.890633 88.3750094,36.9687472 86.5,37.53125 C86.0312477,37.7187509 85.2343806,37.9531236 84.109375,38.234375 C83.5468722,38.3281255 83.1718759,38.4218745 82.984375,38.515625 C82.7968741,38.515625 82.703125,38.6562486 82.703125,38.9375 C82.5156241,40.8125094 82.0468788,42.9687378 81.296875,45.40625 C80.1718694,48.6875164 78.2968881,50.5156231 75.671875,50.890625 C73.1406123,51.2656269 71.7812509,50.7968816 71.59375,49.484375 C71.4999995,49.0156227 71.5468741,48.6406264 71.734375,48.359375 C71.9218759,48.1718741 72.1562486,48.1718741 72.4375,48.359375 C73.3750047,48.9218778 74.2656208,48.9218778 75.109375,48.359375 C76.6093825,47.4218703 77.7343713,46.1093834 78.484375,44.421875 C79.0468778,43.015618 79.4687486,41.4687584 79.75,39.78125 C79.2812477,39.9687509 78.6718788,40.2031236 77.921875,40.484375 C76.328117,40.9531273 74.828132,40.6718802 73.421875,39.640625 C73.1406236,39.3593736 72.7656273,39.1250009 72.296875,38.9375 C72.1093741,38.7499991 72.015625,38.6093755 72.015625,38.515625 C72.015625,38.4218745 72.2031231,38.3281255 72.578125,38.234375 C75.7656409,37.0156189 78.156242,36.1718773 79.75,35.703125 C80.0312514,35.6093745 80.171875,35.4218764 80.171875,35.140625 C80.171875,34.8593736 80.2187495,34.5312519 80.3125,34.15625 L80.3125,33.453125 C80.6875019,31.859367 80.7343764,30.6406292 80.453125,29.796875 C80.2656241,29.3281227 79.9843769,28.7656283 79.609375,28.109375 Z M87.34375,44.28125 C88.3750052,45.0312537 89.3593703,45.8281208 90.296875,46.671875 C91.5156311,48.078132 91.6562547,49.5312425 90.71875,51.03125 C89.9687463,51.1250005 89.3125028,50.7968788 88.75,50.046875 C88.2812477,49.3906217 87.6250042,48.7343783 86.78125,48.078125 C86.0312462,47.6093727 85.3750028,46.9531292 84.8125,46.109375 C84.4374981,45.3593712 83.6875056,44.5625042 82.5625,43.71875 L82.28125,43.578125 C82.3750005,43.4843745 82.5624986,43.3906255 82.84375,43.296875 C84.3437575,43.2031245 85.8437425,43.5312463 87.34375,44.28125 Z M119.40625,26.421875 C119.3125,26.1406236 119.453123,26 119.828125,26 C120.484378,26.0937505 120.953124,26.0937505 121.234375,26 C121.609377,26 121.937499,26.2343727 122.21875,26.703125 C122.406251,27.1718773 122.359376,27.4999991 122.078125,27.6875 C121.609373,27.8750009 121.093753,28.1093736 120.53125,28.390625 C119.031243,29.1406287 117.343759,29.3750014 115.46875,29.09375 C114.999998,28.8124986 114.203131,28.671875 113.078125,28.671875 C112.890624,28.671875 112.796875,28.6250005 112.796875,28.53125 C112.796875,28.3437491 112.937499,28.2031255 113.21875,28.109375 C115.375011,27.2656208 117.43749,26.7031264 119.40625,26.421875 Z M120.109375,30.921875 C121.328131,30.8281245 121.796876,31.1093717 121.515625,31.765625 C121.421875,31.8593755 121.375,32.0937481 121.375,32.46875 C121.843752,32.46875 122.171874,32.4218755 122.359375,32.328125 C125.546891,32.328125 127.046876,33.6406119 126.859375,36.265625 C126.578124,36.7343773 126.203127,37.4374953 125.734375,38.375 C124.890621,39.2187542 124.140628,39.6874995 123.484375,39.78125 C122.921872,40.3437528 121.046891,40.9062472 117.859375,41.46875 C117.671874,41.5625005 117.484376,41.8437477 117.296875,42.3125 C117.203125,42.5000009 117.062501,42.7343736 116.875,43.015625 C116.406248,43.7656287 116.125,44.2343741 116.03125,44.421875 C117.156256,44.2343741 118.093746,44.140625 118.84375,44.140625 C119.312502,43.2031203 119.453126,42.5937514 119.265625,42.3125 C118.984374,41.9374981 119.218746,41.75 119.96875,41.75 C121.281257,42.1250019 121.796876,42.6874963 121.515625,43.4375 L121.375,43.578125 C121.375,43.6718755 121.328125,43.71875 121.234375,43.71875 C124.796893,43.6249995 127.187494,43.7187486 128.40625,44 C128.781252,44.1875009 129.015625,44.6093717 129.109375,45.265625 C128.921874,46.2031297 128.35938,46.4375023 127.421875,45.96875 C126.953123,45.5937481 126.343754,45.40625 125.59375,45.40625 C124.374994,45.2187491 122.687511,45.2187491 120.53125,45.40625 C119.687496,47.2812594 118.843754,48.7812444 118,49.90625 C119.312507,50.5625033 121.046864,51.593743 123.203125,53 C124.23438,53.4687523 124.609376,54.1249958 124.328125,54.96875 C123.578121,55.1562509 123.062501,55.0156273 122.78125,54.546875 C122.499999,54.0781227 121.750006,53.5625028 120.53125,53 C119.968747,52.6249981 119.125006,52.0156292 118,51.171875 C117.718749,50.9843741 117.484376,50.8437505 117.296875,50.75 C114.015609,52.6250094 110.687517,52.4375113 107.3125,50.1875 C107.21875,49.9999991 107.171875,49.8593755 107.171875,49.765625 C107.265625,49.6718745 107.406249,49.6718745 107.59375,49.765625 C111.156268,51.2656325 113.874991,51.1718834 115.75,49.484375 C114.906246,48.8281217 114.4375,47.8437566 114.34375,46.53125 C111.812487,47.2812538 109.421886,47.65625 107.171875,47.65625 C106.890624,47.65625 106.75,47.6093755 106.75,47.515625 C106.75,47.3281241 106.890624,47.1875005 107.171875,47.09375 C107.546877,46.9062491 108.20312,46.6250019 109.140625,46.25 C109.328126,46.25 109.515624,46.2031255 109.703125,46.109375 C110.546879,45.9218741 111.156248,45.7812505 111.53125,45.6875 C112.468755,45.3124981 113.546869,44.9843764 114.765625,44.703125 C115.609379,43.296868 116.124999,42.2187537 116.3125,41.46875 L114.34375,41.46875 C113.499996,41.46875 112.843752,40.765632 112.375,39.359375 C112.28125,38.8906227 112.374999,38.7968736 112.65625,39.078125 C113.218753,39.9218792 114.062494,40.34375 115.1875,40.34375 C115.28125,40.0624986 115.187501,39.8281259 114.90625,39.640625 C114.343747,39.5468745 114.390622,38.4218858 115.046875,36.265625 C113.828119,37.0156288 112.750005,37.9531194 111.8125,39.078125 C111.8125,39.2656259 111.859375,39.4062495 111.953125,39.5 C112.234376,39.8750019 112.281251,40.3437472 112.09375,40.90625 C110.499992,41.0000005 109.515627,40.2031334 109.140625,38.515625 C108.578122,37.0156175 109.656236,34.76564 112.375,31.765625 C112.562501,31.4843736 112.749999,31.4374991 112.9375,31.625 C113.03125,31.8125009 112.984376,32.0468736 112.796875,32.328125 C111.85937,34.1093839 111.4375,35.7499925 111.53125,37.25 C112.937507,35.843743 114.296868,34.9062523 115.609375,34.4375 C115.796876,33.4999953 116.078123,32.7500028 116.453125,32.1875 C116.546875,31.9999991 116.640625,31.90625 116.734375,31.90625 L116.875,32.1875 C116.96875,32.4687514 117.015625,32.7499986 117.015625,33.03125 L117.015625,33.3125 C116.921875,33.5937514 116.921875,33.7812495 117.015625,33.875 C117.296876,33.5937486 118.093743,33.2656269 119.40625,32.890625 C119.593751,32.7968745 119.734375,32.75 119.828125,32.75 C120.109376,32.0937467 120.156251,31.6250014 119.96875,31.34375 C119.781249,31.1562491 119.734375,31.0625 119.828125,31.0625 C119.828125,30.9687495 119.921874,30.921875 120.109375,30.921875 Z M123.203125,33.875 L121.09375,33.875 C120.343746,35.3750075 119.500005,37.3437378 118.5625,39.78125 C118.65625,39.78125 118.796874,39.7343755 118.984375,39.640625 C119.359377,39.5468745 119.640624,39.4531255 119.828125,39.359375 C120.296877,39.2656245 120.953121,39.0781264 121.796875,38.796875 C122.265627,38.6093741 122.593749,38.515625 122.78125,38.515625 C124.093757,37.8593717 124.796875,37.0156302 124.890625,35.984375 C125.078126,34.8593694 124.515632,34.1562514 123.203125,33.875 Z M119.40625,34.4375 C118.562496,34.4375 117.67188,34.7187472 116.734375,35.28125 C116.546874,37.6250117 116.40625,38.8437495 116.3125,38.9375 C116.031249,39.3125019 115.9375,39.7343727 116.03125,40.203125 C116.125,40.203125 116.359373,40.1562505 116.734375,40.0625 L117.15625,40.0625 C117.15625,39.9687495 117.249999,39.7812514 117.4375,39.5 C117.625001,39.0312477 117.765625,38.6093769 117.859375,38.234375 C118.140626,37.7656227 118.562497,36.828132 119.125,35.421875 C119.21875,34.9531227 119.3125,34.6250009 119.40625,34.4375 Z M118.28125,45.6875 C118.1875,45.6875 117.906252,45.7343745 117.4375,45.828125 L115.1875,46.390625 C115.375001,47.6093811 115.796872,48.4062481 116.453125,48.78125 C117.296879,48.0312463 117.906248,47.0000066 118.28125,45.6875 Z M146.828125,24.734375 C147.953131,25.5781292 149.031245,26.6562434 150.0625,27.96875 C150.531252,28.7187537 150.484378,29.3749972 149.921875,29.9375 C149.453123,30.0312505 148.984377,29.9843759 148.515625,29.796875 C147.015618,30.0781264 146.21875,30.4531227 146.125,30.921875 C146.125,31.5781283 146.312498,32.0937481 146.6875,32.46875 C146.968751,33.5000052 146.593755,33.9218759 145.5625,33.734375 C145.187498,33.734375 144.812502,33.7812495 144.4375,33.875 C144.156249,34.0625009 144.109374,33.9687519 144.296875,33.59375 C144.578126,33.1249977 144.71875,32.6562523 144.71875,32.1875 C144.343748,31.3437458 144.67187,30.5468787 145.703125,29.796875 C146.921881,28.8593703 147.437501,28.1562523 147.25,27.6875 C146.968749,27.0312467 146.734376,26.1406306 146.546875,25.015625 C146.453125,24.5468727 146.546874,24.4531236 146.828125,24.734375 Z M160.328125,26.703125 C161.453131,26.2343727 162.296872,26.796867 162.859375,28.390625 C163.328127,29.5156306 163.609375,31.2499883 163.703125,33.59375 C163.796875,37.1562678 164.124997,42.734337 164.6875,50.328125 C165.156252,52.1093839 164.968754,53.5156198 164.125,54.546875 C163.562497,55.4843797 162.812505,55.6250033 161.875,54.96875 C160.843745,53.9374948 159.85938,53.2812514 158.921875,53 C158.546873,52.9062495 158.546873,52.859375 158.921875,52.859375 C161.171886,52.9531255 162.296875,52.7656273 162.296875,52.296875 C162.765627,51.1718694 162.859376,47.9844013 162.578125,42.734375 C162.484375,41.8906208 162.4375,40.0625141 162.4375,37.25 C162.249999,32.2812252 161.968752,29.1875061 161.59375,27.96875 C161.124998,27.3124967 160.656252,27.0781241 160.1875,27.265625 C159.156245,28.1093792 157.515636,29.0937444 155.265625,30.21875 C153.859368,31.0625042 152.968752,31.6249986 152.59375,31.90625 C151.656245,32.8437547 150.812504,33.1250019 150.0625,32.75 C149.781249,32.5624991 149.734374,32.3750009 149.921875,32.1875 L150.203125,32.046875 L150.765625,31.484375 C152.546884,29.9843675 155.734352,28.3906334 160.328125,26.703125 Z M157.796875,32.890625 C158.265627,33.0781259 158.359376,33.3124986 158.078125,33.59375 C157.703123,33.9687519 157.140629,34.15625 156.390625,34.15625 C155.35937,34.6250023 154.375005,35.4218694 153.4375,36.546875 C152.968748,37.3906292 152.6875,38.4218689 152.59375,39.640625 C153.343754,39.0781222 154.140621,38.8906241 154.984375,39.078125 C154.984375,38.1406203 155.03125,37.3906278 155.125,36.828125 C155.312501,35.9843708 155.499999,35.6093745 155.6875,35.703125 C156.531254,36.2656278 156.953125,36.9687458 156.953125,37.8125 C156.765624,38.0937514 156.671875,38.7499948 156.671875,39.78125 C156.578125,40.2500023 156.53125,40.5781241 156.53125,40.765625 C156.812501,40.765625 157.093749,40.8593741 157.375,41.046875 C157.656251,41.2343759 158.171871,41.328125 158.921875,41.328125 C159.578128,41.5156259 159.718752,41.8437477 159.34375,42.3125 C158.499996,42.8750028 157.562505,43.3437481 156.53125,43.71875 L156.53125,45.96875 C156.4375,46.3437519 156.390625,47.1874934 156.390625,48.5 C156.390625,50.2812589 155.92188,51.8281184 154.984375,53.140625 C154.796874,53.4218764 154.65625,53.5625 154.5625,53.5625 C154.46875,53.5625 154.421875,53.4218764 154.421875,53.140625 C154.609376,51.9218689 154.65625,50.3750094 154.5625,48.5 L154.5625,47.796875 C154.46875,46.9531208 154.46875,45.9687556 154.5625,44.84375 C152.312489,46.437508 150.765629,47.234375 149.921875,47.234375 C149.171871,47.4218759 148.468753,47.2343778 147.8125,46.671875 C147.624999,46.3906236 147.578125,46.1562509 147.671875,45.96875 C147.859376,45.7812491 148.046874,45.7343745 148.234375,45.828125 C148.609377,46.1093764 149.26562,45.9687528 150.203125,45.40625 C149.828123,45.2187491 149.734374,44.9843764 149.921875,44.703125 C149.921875,44.6093745 149.96875,44.5156255 150.0625,44.421875 C150.15625,44.1406236 150.203125,43.8593764 150.203125,43.578125 C150.296875,41.4218642 150.765621,39.3125103 151.609375,37.25 C151.703125,37.1562495 151.656251,37.109375 151.46875,37.109375 C151.375,37.109375 151.187501,37.2031241 150.90625,37.390625 C150.437498,37.4843755 150.062501,37.5781245 149.78125,37.671875 C148.937496,37.9531264 148.281252,37.8125028 147.8125,37.25 C147.624999,37.1562495 147.578125,37.0156259 147.671875,36.828125 C147.859376,36.6406241 148.046874,36.5937495 148.234375,36.6875 C148.609377,36.7812505 149.26562,36.5468778 150.203125,35.984375 C153.390641,34.2031161 155.03125,33.1718764 155.125,32.890625 C155.875004,32.6093736 156.76562,32.6093736 157.796875,32.890625 Z M144.859375,35.84375 C145.046876,37.7187594 145.046876,41.3280983 144.859375,46.671875 C144.765625,48.3593834 144.906248,49.8593684 145.28125,51.171875 C145.468751,51.7343778 145.140629,52.015625 144.296875,52.015625 C143.35937,52.015625 142.9375,51.8750014 143.03125,51.59375 C143.03125,51.4062491 142.984375,51.1250019 142.890625,50.75 C142.796875,50.0937467 142.703125,49.7187505 142.609375,49.625 C142.609375,46.5312345 142.890622,43.6250136 143.453125,40.90625 C143.921877,39.312492 144.15625,37.9531306 144.15625,36.828125 C144.343751,35.7968698 144.578124,35.4687481 144.859375,35.84375 Z M154.84375,40.34375 C153.906245,40.6250014 153.109378,40.8124995 152.453125,40.90625 L152.453125,41.890625 C152.359375,42.9218802 152.3125,43.5781236 152.3125,43.859375 C152.3125,44.1406264 152.406249,44.2343755 152.59375,44.140625 C153.343754,43.6718727 154.046872,43.2500019 154.703125,42.875 C154.703125,42.6874991 154.75,42.2187537 154.84375,41.46875 L154.84375,40.34375 Z" id="交大要闻"></path>
            </g>
        </g>
    </g>
</svg>